<?xml version="1.0" encoding="utf-8"?>
<!-- Generator: Adobe Illustrator 16.0.0, SVG Export Plug-In . SVG Version: 6.00 Build 0)  -->
<!DOCTYPE svg PUBLIC "-//W3C//DTD SVG 1.1//EN" "http://www.w3.org/Graphics/SVG/1.1/DTD/svg11.dtd">
<svg version="1.1" id="Layer_1" xmlns="http://www.w3.org/2000/svg" xmlns:xlink="http://www.w3.org/1999/xlink" x="0px" y="0px"
	 width="636.453px" height="78.25px" viewBox="0 0 636.453 78.25" enable-background="new 0 0 636.453 78.25" xml:space="preserve">
<path fill="#FFFFFF" d="M2.287,7.555c0-3.699,2.938-6.743,6.743-6.743h1.414c3.263,0,5.111,1.63,6.961,3.916L55.47,53.996V7.228
	c0-3.588,2.936-6.525,6.527-6.525c3.696,0,6.633,2.937,6.633,6.525v63.95c0,3.699-2.827,6.637-6.525,6.637h-0.544
	c-3.154,0-5.11-1.633-6.959-4.021L15.447,23.107v48.292c0,3.59-2.936,6.522-6.525,6.522c-3.697,0-6.635-2.935-6.635-6.522V7.555z"/>
<path fill="#FFFFFF" d="M88.201,70.639V7.989c0-3.805,2.938-6.742,6.744-6.742h44.266c3.265,0,5.981,2.719,5.981,5.98
	c0,3.371-2.718,5.983-5.981,5.983H101.58v19.793h32.736c3.264,0,5.981,2.719,5.981,6.091c0,3.265-2.719,5.873-5.981,5.873H101.58
	v20.447h38.173c3.266,0,5.981,2.723,5.981,5.984c0,3.369-2.717,5.979-5.981,5.979H94.945C91.137,77.376,88.201,74.445,88.201,70.639
	z"/>
<path fill="#FFFFFF" d="M156.389,9.838c-0.328-0.76-0.544-1.741-0.544-2.61c0-3.697,3.151-6.525,6.851-6.525
	c3.264,0,5.764,2.067,6.635,4.895l17.511,52.312l17.185-52.096c1.089-3.153,3.372-5.327,6.743-5.327h0.979
	c3.372,0,5.766,2.174,6.744,5.327l17.183,52.096l17.514-52.42c0.979-2.719,3.263-4.786,6.523-4.786c3.588,0,6.637,2.828,6.637,6.417
	c0,0.869-0.326,1.958-0.653,2.718L243.18,72.924c-1.195,3.365-3.697,5.543-6.96,5.543h-1.306c-3.264,0-5.656-2.064-6.852-5.543
	l-16.968-49.708l-16.968,49.708c-1.194,3.479-3.697,5.543-6.96,5.543h-1.306c-3.264,0-5.656-2.064-6.961-5.543L156.389,9.838z"/>
<path fill="#FFFFFF" d="M277.213,68.896c-1.522-1.088-2.611-2.938-2.611-5.111c0-3.482,2.828-6.2,6.31-6.2
	c1.848,0,3.046,0.545,3.915,1.196c6.309,5.004,13.052,7.834,21.317,7.834c8.265,0,13.482-3.92,13.482-9.574V56.82
	c0-5.436-3.043-8.373-17.182-11.635c-16.206-3.916-25.341-8.701-25.341-22.731v-0.216c0-13.053,10.876-22.08,25.992-22.08
	c9.571,0,17.295,2.502,24.146,7.069c1.521,0.869,2.934,2.72,2.934,5.329c0,3.483-2.824,6.2-6.306,6.2
	c-1.308,0-2.394-0.328-3.479-0.98c-5.874-3.806-11.529-5.765-17.513-5.765c-7.831,0-12.397,4.027-12.397,9.028v0.217
	c0,5.874,3.479,8.485,18.162,11.966c16.099,3.913,24.363,9.676,24.363,22.297v0.215c0,14.244-11.202,22.73-27.189,22.73
	C295.483,78.466,285.697,75.205,277.213,68.896z"/>
<path fill="#FFFFFF" d="M345.836,5.161c-0.219-0.543-0.325-0.978-0.325-1.415c0-1.521,1.411-2.935,2.933-2.935
	c1.526,0,2.614,1.305,3.046,2.609l23.167,65.583L396.3,2.985c0.438-1.196,1.197-2.174,2.721-2.174h0.216
	c1.413,0,2.283,0.979,2.723,2.174L423.6,69.003l23.274-65.91c0.545-1.414,1.412-2.282,2.721-2.282c1.412,0,2.827,1.414,2.827,2.828
	c0,0.435-0.217,0.979-0.438,1.521l-25.448,70.59c-0.544,1.412-1.413,2.5-2.938,2.5h-0.218c-1.523,0-2.503-1.088-2.937-2.5
	l-21.536-63.953L377.375,75.75c-0.437,1.412-1.415,2.5-2.938,2.5h-0.219c-1.521,0-2.39-0.98-2.935-2.5L345.836,5.161z"/>
<path fill="#FFFFFF" d="M470.896,3.64c0-1.523,1.307-2.828,2.827-2.828c1.524,0,2.828,1.305,2.828,2.828v71.348
	c0,1.521-1.304,2.826-2.828,2.826c-1.521,0-2.827-1.306-2.827-2.826V3.64z"/>
<g>
	<path fill="#FFFFFF" d="M578.559,74.611V5.574c0-1.493,1.308-2.769,2.828-2.769h49.158c1.415,0,2.608,1.17,2.608,2.553
		c0,1.387-1.193,2.561-2.608,2.561h-46.331v29.297h41.436c1.418,0,2.612,1.171,2.612,2.558c0,1.383-1.194,2.558-2.612,2.558h-41.436
		v29.935h46.876c1.415,0,2.608,1.168,2.608,2.557c0,1.384-1.193,2.556-2.608,2.556h-49.703
		C579.867,77.376,578.559,76.102,578.559,74.611z"/>
</g>
<g>
	<path fill="#FFFFFF" d="M508.348,1.757h19.76c7.819,0,14.234,3.669,19.255,11.003c1.59,2.801,2.384,5.731,2.384,8.791v0.831
		c0,6.818-3.783,12.402-11.35,16.753l-3.701,1.716c14.801,22.482,22.203,33.838,22.203,34.059v1.051
		c0,1.289-1.025,2.078-3.073,2.379h-0.128c-1.587,0-3.492-2.139-5.707-6.416l-20.01-30.025h-15.935V75.96
		c0,1.289-1.022,2.078-3.07,2.379h-0.125c-1.548,0-2.531-0.981-2.948-2.935V5.074C506.153,2.862,506.968,1.757,508.348,1.757z
		 M512.047,6.954v29.581H527.1c8.282,0,13.72-3.924,16.312-11.777l0.248-1.879v-1.771c0-5.825-3.658-10.229-10.973-13.213
		c-2.092-0.627-5.204-0.941-9.347-0.941H512.047z"/>
</g>
</svg>
